<svg aria-hidden="true" data-prefix="fab" data-icon="line" class="svg-inline--fa fa-line fa-w-14" xmlns="http://www.w3.org/2000/svg" viewBox="0 0 448 512"><path fill="currentColor" d="M272 204v71c0 2-1 3-3 3h-11l-3-1-33-44v42c0 2-1 4-3 4h-11c-2 0-3-2-3-4v-71c0-2 1-3 3-3h11l3 1 32 44v-42c0-2 2-3 3-3h12c2 0 3 1 3 3zm-82-3h-11c-2 0-3 1-3 3v71c0 2 1 3 3 3h11c2 0 3-1 3-3v-71c0-2-1-3-3-3zm-27 60h-31v-57c0-2-2-3-4-3h-11c-2 0-3 1-3 3v71l1 3h48c1 0 3-1 3-3v-11c0-2-2-3-3-3zm169-60h-46c-1 0-3 1-3 3v71c0 2 2 3 3 3h46c2 0 3-1 3-3v-11c0-2-1-3-3-3h-31v-12h31c2 0 3-2 3-4v-11c0-2-1-3-3-3h-31v-12h31c2 0 3-2 3-3v-12c0-1-1-3-3-3zm116-87v285c0 45-37 81-82 81H81c-45 0-81-37-81-82V113c0-45 37-81 82-81h285c45 0 81 37 81 82zm-62 122c0-73-73-132-163-132S60 163 60 236c0 66 58 121 137 131 19 4 16 11 12 37-1 4-3 16 14 8 18-7 94-55 128-94 24-26 35-52 35-82z"/></svg>